# xmcd
#
# Track frame offsets:
#	150
#	32344
#	58347
#	97313
#	146612
#	193323
#	229255
#
# Disc length: 3531 seconds
#
# Revision: 0
# Processed by: cddbd v1.5.2PL0 Copyright (c) Steve Scherf et al.
# Submitted via: audiograbber 1.83.01
#
DISCID=680dc907
DTITLE=Eddie Turner - Crossroads - Bonn, Harmonie - 18. Oktober 2006
DYEAR=2006
DGENRE=Blues
TTITLE0=Gangster Of Love
TTITLE1=The Wind Cries Mary
TTITLE2=Dangerous
TTITLE3=Rise
TTITLE4=I'm A Man, I'm A Man
TTITLE5=Brush w/Blues
TTITLE6=Secret
EXTD=
EXTT0=
EXTT1=
EXTT2=
EXTT3=
EXTT4=
EXTT5=
EXTT6=
PLAYORDER=
